<svg width="64" height="64" viewBox="0 0 64 64" fill="none" xmlns="http://www.w3.org/2000/svg" role="img" aria-label="表情包不求人">
  <rect width="64" height="64" rx="18" fill="#171512"/>
  <g transform="translate(-4 -4) scale(1.14)">
  <path d="M42.5 13.5H23.75C19.332 13.5 15.75 17.082 15.75 21.5V40.25C15.75 44.668 19.332 48.25 23.75 48.25H37.55C38.876 48.25 40.148 47.723 41.086 46.786L49.036 38.836C49.973 37.898 50.5 36.626 50.5 35.3V21.5C50.5 17.082 46.918 13.5 42.5 13.5Z" fill="#FFF7ED"/>
  <path d="M38.25 47.5V39.75C38.25 38.9216 38.9216 38.25 39.75 38.25H47.5" fill="#F6E5DC"/>
  <path d="M38.25 47.5V39.75C38.25 38.9216 38.9216 38.25 39.75 38.25H47.5" stroke="#C96442" stroke-width="3" stroke-linecap="round" stroke-linejoin="round"/>
  <path d="M27.25 29.75C27.25 27.4038 29.1538 25.5 31.5 25.5H34.5C36.8462 25.5 38.75 27.4038 38.75 29.75V30.5C38.75 32.8462 36.8462 34.75 34.5 34.75H31.5C29.1538 34.75 27.25 32.8462 27.25 30.5V29.75Z" fill="#D69E5F"/>
  <path d="M24.5 25.5V34.75" stroke="#171512" stroke-width="3" stroke-linecap="round"/>
  <path d="M41.5 25.5V34.75" stroke="#171512" stroke-width="3" stroke-linecap="round"/>
  <path d="M31 30.25H35" stroke="#171512" stroke-width="2.5" stroke-linecap="round"/>
  <path d="M21.25 18.75L22.375 21.625L25.25 22.75L22.375 23.875L21.25 26.75L20.125 23.875L17.25 22.75L20.125 21.625L21.25 18.75Z" fill="#E8B067"/>
  <path d="M44.75 16.75L45.525 18.725L47.5 19.5L45.525 20.275L44.75 22.25L43.975 20.275L42 19.5L43.975 18.725L44.75 16.75Z" fill="#C96442"/>
  </g>
</svg>
